#!OML:ASF I:\Actors\actors\Patient Classification 1\Patient 1\Session 1\Subject1.ASF
:FULLY-SPECIFIED
:DEGREES
1079
root 0.593237 17.451 9.43601 9.8001 -1.59992 -8.94443
lowerback -1.50848 2.0168 6.71114
upperback -9.15942 3.1008 2.11893
thorax -8.61197 1.12004 -1.67273
lowerneck -7.99837 1.73671 3.6025
upperneck 13.9398 1.94752 -0.527216
head 5.56399 1.1038 -0.617099
rclavicle 2.10712e-014 5.78463e-014
rhumerus -54.7564 -27.6264 -59.4268
rradius 18.8085
rwrist 48.9972
rhand 6.86136 -29.5839
rfingers 7.12502
rthumb 32.1437 -56.7609
lclavicle 2.10712e-014 5.78463e-014
lhumerus -48.9913 22.2586 70.6127
lradius 16.3214
lwrist -30.9168
lhand -18.1374 -8.69984
lfingers 7.12502
lthumb 8.13769 21.1235
rfemur -3.72029 24.3228 25.7589
rtibia 2.60154
rfoot -12.0464 -24.3321
rtoes 2.9336
lfemur 7.11972 -47.7686 -13.5593
ltibia -4.97736
lfoot -28.0807 55.2709
ltoes 15.7491
1080
root 0.588319 17.4497 9.43059 9.86243 -1.72651 -8.94701
lowerback -1.51417 1.98367 6.61059
upperback -9.19783 3.05264 2.0977
thorax -8.65698 1.10066 -1.63744
lowerneck -8.17572 1.66693 3.5911
upperneck 14.1097 1.82528 -0.386563
head 5.64373 1.05468 -0.578188
rclavicle 1.82385e-014 3.69739e-014
rhumerus -54.6131 -27.5576 -59.6679
rradius 18.7875
rwrist 49.2819
rhand 6.84049 -29.3695
rfingers 7.12502
rthumb 32.1238 -56.5506
lclavicle 1.82385e-014 3.69739e-014
lhumerus -49.0531 22.3974 70.4142
lradius 16.3186
lwrist -31.1295
lhand -18.0978 -8.62045
lfingers 7.12502
lthumb 8.1759 21.2014
rfemur -3.85774 24.2594 25.7151
rtibia 2.64484
rfoot -11.9684 -24.1336
rtoes 2.78971
lfemur 7.02088 -47.6887 -13.4703
ltibia -4.9523
lfoot -28.1883 55.2511
ltoes 15.7414
1081
root 0.582543 17.449 9.42678 9.89357 -1.84206 -8.88995
lowerback -1.53318 1.97523 6.44594
upperback -9.20163 3.02999 2.04496
thorax -8.65351 1.09956 -1.60056
lowerneck -8.49185 1.5723 3.52605
upperneck 14.4003 1.65861 -0.170294
head 5.78359 0.98803 -0.508842
rclavicle -3.45885e-014 -6.55989e-015
rhumerus -54.4906 -27.6344 -59.8061
rradius 18.7266
rwrist 49.5699
rhand 6.78009 -29.2441
rfingers 7.12502
rthumb 32.0663 -56.4367
lclavicle -3.45885e-014 -6.55989e-015
lhumerus -49.0704 22.6477 70.126
lradius 16.262
lwrist -31.4421
lhand -18.0221 -8.60772
lfingers 7.12502
lthumb 8.24896 21.2112
rfemur -3.91717 24.2612 25.6287
rtibia 2.62322
rfoot -11.9272 -24.0353
rtoes 2.82124
lfemur 7.00078 -47.7161 -13.5299
ltibia -4.90715
lfoot -28.2475 55.3605
ltoes 15.6531
1082
root 0.576852 17.4486 9.42378 9.89125 -1.95661 -8.86896
lowerback -1.52177 2.00818 6.36968
upperback -9.20497 3.06686 1.96271
thorax -8.65867 1.1195 -1.64781
lowerneck -8.75339 1.46306 3.39249
upperneck 14.6431 1.46643 0.157834
head 5.8981 0.91395 -0.395733
rclavicle -1.23743e-014 6.02318e-014
rhumerus -54.526 -27.9265 -59.7182
rradius 18.644
rwrist 50.0027
rhand 6.75345 -29.1868
rfingers 7.12502
rthumb 32.041 -56.3846
lclavicle -1.23743e-014 6.02318e-014
lhumerus -49.0734 22.8376 69.8336
lradius 16.1953
lwrist -31.6914
lhand -18.0476 -8.69844
lfingers 7.12502
lthumb 8.22444 21.1215
rfemur -3.91359 24.2324 25.6017
rtibia 2.5441
rfoot -11.765 -23.922
rtoes 2.57873
lfemur 7.08439 -47.8353 -13.6279
ltibia -4.88351
lfoot -28.2658 55.5856
ltoes 15.4906
1083
root 0.571843 17.4487 9.42147 9.89566 -2.07266 -8.93127
lowerback -1.50596 2.03052 6.37424
upperback -9.23505 3.09689 1.91972
thorax -8.69664 1.13019 -1.69826
lowerneck -8.88342 1.36219 3.21462
upperneck 14.7734 1.29271 0.518203
head 5.95539 0.848271 -0.26506
rclavicle -2.3556e-014 4.79071e-014
rhumerus -54.635 -28.2722 -59.4682
rradius 18.5195
rwrist 50.5951
rhand 6.72792 -29.0766
rfingers 7.12502
rthumb 32.0167 -56.2792
lclavicle -2.3556e-014 4.79071e-014
lhumerus -49.1624 22.973 69.5614
lradius 16.1545
lwrist -31.8047
lhand -18.0984 -8.78698
lfingers 7.12502
lthumb 8.17536 21.0349
rfemur -3.91001 24.1779 25.6722
rtibia 2.47868
rfoot -11.6053 -23.7545
rtoes 2.40605
lfemur 7.18603 -48.0004 -13.6434
ltibia -4.85925
lfoot -28.6624 55.7635
ltoes 15.8629
1084
root 0.567421 17.4485 9.41995 9.94007 -2.22166 -9.00664
lowerback -1.53321 2.04772 6.34886
upperback -9.27064 3.11829 1.91918
thorax -8.71958 1.14128 -1.68527
lowerneck -8.91009 1.31063 3.19139
upperneck 14.853 1.18906 0.738104
head 5.98263 0.814213 -0.199457
rclavicle 3.33958e-014 -1.05356e-014
rhumerus -54.6568 -28.4999 -59.2769
rradius 18.398
rwrist 51.1317
rhand 6.70159 -28.9724
rfingers 7.12502
rthumb 31.9916 -56.18
lclavicle 3.33958e-014 -1.05356e-014
lhumerus -49.2804 23.1096 69.3483
lradius 16.1346
lwrist -31.8814
lhand -18.0754 -8.87372
lfingers 7.12502
lthumb 8.19758 20.9472
rfemur -3.96242 24.1609 25.7371
rtibia 2.46915
rfoot -11.581 -23.5687
rtoes 2.60172
lfemur 7.26331 -48.176 -13.6329
ltibia -4.83308
lfoot -29.4782 55.8925
ltoes 16.6259
1085
root 0.562902 17.4478 9.41892 10.0113 -2.39134 -9.10493
lowerback -1.59337 2.09222 6.35178
upperback -9.30676 3.17349 1.90515
thorax -8.71952 1.16703 -1.70255
lowerneck -9.02422 1.1929 2.96606
upperneck 14.944 0.991062 1.1534
head 6.02551 0.738431 -0.0457427
rclavicle 1.13804e-014 2.06736e-014
rhumerus -54.668 -28.6467 -59.205
rradius 18.314
rwrist 51.5141
rhand 6.76247 -28.9695
rfingers 7.12502
rthumb 32.0496 -56.1655
lclavicle 1.13804e-014 2.06736e-014
lhumerus -49.344 23.1664 69.188
lradius 16.1448
lwrist -32.0091
lhand -17.9964 -8.86498
lfingers 7.12502
lthumb 8.27385 20.953
rfemur -4.05113 24.184 25.8158
rtibia 2.46788
rfoot -11.5617 -23.3972
rtoes 2.62801
lfemur 7.33331 -48.3192 -13.5741
ltibia -4.85215
lfoot -30.0958 56.0657
ltoes 16.9982
1086
root 0.557937 17.4476 9.41703 10.0676 -2.56778 -9.24721
lowerback -1.62243 2.1524 6.42638
upperback -9.35336 3.25336 1.85933
thorax -8.74319 1.19697 -1.79556
lowerneck -9.05731 1.11257 2.83071
upperneck 15.057 0.8284 1.59531
head 6.06352 0.687427 0.104071
rclavicle 6.85807e-015 -6.75868e-015
rhumerus -54.7375 -28.7911 -59.1895
rradius 18.2296
rwrist 51.8391
rhand 6.8132 -29.0142
rfingers 7.12502
rthumb 32.0979 -56.2004
lclavicle 6.85807e-015 -6.75868e-015
lhumerus -49.3843 23.1419 69.0022
lradius 16.1535
lwrist -32.1996
lhand -17.9754 -8.77305
lfingers 7.12502
lthumb 8.29408 21.0441
rfemur -4.13374 24.241 25.9509
rtibia 2.47173
rfoot -11.5081 -23.2437
rtoes 2.57302
lfemur 7.4306 -48.45 -13.4689
ltibia -4.90304
lfoot -30.6086 56.2844
ltoes 17.3139
1087
root 0.552931 17.4479 9.414 10.0953 -2.74028 -9.3245
lowerback -1.58713 2.17432 6.44914
upperback -9.4001 3.28574 1.81293
thorax -8.81014 1.20581 -1.86092
lowerneck -9.17502 1.05481 2.57695
upperneck 15.2693 0.69595 2.1156
head 6.14768 0.652781 0.30168
rclavicle 3.03147e-015 -1.98785e-015
rhumerus -54.7864 -28.887 -59.1998
rradius 18.1695
rwrist 52.2557
rhand 6.80316 -28.9969
rfingers 7.12502
rthumb 32.0883 -56.1851
lclavicle 3.03147e-015 -1.98785e-015
lhumerus -49.4703 23.1838 68.7804
lradius 16.1517
lwrist -32.4367
lhand -18.0462 -8.75803
lfingers 7.12502
lthumb 8.22578 21.0618
rfemur -4.18709 24.3013 26.0265
rtibia 2.47604
rfoot -11.445 -23.1251
rtoes 2.60715
lfemur 7.48197 -48.4228 -13.4093
ltibia -4.92527
lfoot -30.8598 56.4008
ltoes 17.4648
1088
root 0.547704 17.447 9.41089 10.1155 -2.90558 -9.32134
lowerback -1.55266 2.15458 6.3776
upperback -9.43201 3.25929 1.78896
thorax -8.86918 1.19445 -1.84734
lowerneck -9.38325 1.02411 2.19659
upperneck 15.5668 0.608836 2.6657
head 6.27462 0.637798 0.534766
rclavicle -1.63997e-015 1.66979e-014
rhumerus -54.729 -28.8978 -59.2719
rradius 18.13
rwrist 52.6994
rhand 6.8096 -28.9308
rfingers 7.12502
rthumb 32.0944 -56.1177
lclavicle -1.63997e-015 1.66979e-014
lhumerus -49.6021 23.3617 68.5246
lradius 16.155
lwrist -32.6956
lhand -18.1014 -8.73422
lfingers 7.12502
lthumb 8.17249 21.0877
rfemur -4.23069 24.3133 26.0191
rtibia 2.47649
rfoot -11.3474 -22.9878
rtoes 2.40949
lfemur 7.47865 -48.2752 -13.4035
ltibia -4.91646
lfoot -30.946 56.3801
ltoes 17.5027
1089
root 0.542398 17.4465 9.40743 10.1331 -3.08369 -9.35564
lowerback -1.53889 2.14993 6.32552
upperback -9.44493 3.25233 1.78675
thorax -8.89392 1.1937 -1.82132
lowerneck -9.4457 0.9939 1.98304
upperneck 15.684 0.542682 2.98775
head 6.3211 0.621177 0.668112
rclavicle -2.06736e-014 -2.94201e-014
rhumerus -54.6167 -28.9295 -59.3453
rradius 18.0862
rwrist 53.0319
rhand 6.87797 -28.8464
rfingers 7.12502
rthumb 32.1595 -56.0203
lclavicle -2.06736e-014 -2.94201e-014
lhumerus -49.6899 23.5617 68.2971
lradius 16.131
lwrist -32.8748
lhand -18.1302 -8.70227
lfingers 7.12502
lthumb 8.14463 21.1208
rfemur -4.29591 24.2144 26.0425
rtibia 2.50513
rfoot -11.2583 -22.7173
rtoes 2.26589
lfemur 7.5401 -48.2536 -13.4053
ltibia -4.91305
lfoot -31.5014 56.3663
ltoes 17.9981
1090
root 0.536538 17.4468 9.40409 10.1334 -3.25208 -9.38657
lowerback -1.51635 2.14999 6.24699
upperback -9.44682 3.25136 1.78992
thorax -8.91227 1.19868 -1.77553
lowerneck -9.41298 0.935294 2.05306
upperneck 15.6504 0.461821 2.93426
head 6.30575 0.58086 0.632497
rclavicle -9.39258e-015 -9.93923e-015
rhumerus -54.4716 -28.8859 -59.5167
rradius 18.0822
rwrist 53.128
rhand 6.94434 -28.7758
rfingers 7.12502
rthumb 32.2227 -55.9368
lclavicle -9.39258e-015 -9.93923e-015
lhumerus -49.7284 23.7265 68.1194
lradius 16.0836
lwrist -32.9583
lhand -18.1064 -8.76786
lfingers 7.12502
lthumb 8.16764 21.0543
rfemur -4.33263 24.0846 26.0692
rtibia 2.50323
rfoot -11.1299 -22.4485
rtoes 2.07033
lfemur 7.64607 -48.3179 -13.4545
ltibia -4.89208
lfoot -32.2215 56.3832
ltoes 18.7019
1091
root 0.530376 17.4472 9.40018 10.116 -3.40937 -9.34242
lowerback -1.48037 2.13721 6.10616
upperback -9.45006 3.23041 1.76971
thorax -8.94223 1.1972 -1.71963
lowerneck -9.33402 0.862364 2.18826
upperneck 15.5792 0.372112 2.7694
head 6.27074 0.530188 0.54958
rclavicle 1.31695e-014 2.70347e-014
rhumerus -54.3199 -28.8046 -59.7363
rradius 18.0734
rwrist 53.176
rhand 6.98577 -28.803
rfingers 7.12502
rthumb 32.2621 -55.9561
lclavicle 1.31695e-014 2.70347e-014
lhumerus -49.7904 23.8499 67.9618
lradius 16.0798
lwrist -33.0044
lhand -18.0509 -8.8948
lfingers 7.12502
lthumb 8.2212 20.9252
rfemur -4.33205 24.0281 26.0195
rtibia 2.45039
rfoot -10.9691 -22.2779
rtoes 1.7757
lfemur 7.72082 -48.3028 -13.5646
ltibia -4.86455
lfoot -32.5102 56.4273
ltoes 19.0145
1092
root 0.524976 17.4477 9.39528 10.0891 -3.58871 -9.32657
lowerback -1.42033 2.13616 6.03516
upperback -9.44547 3.22942 1.75235
thorax -8.97393 1.20024 -1.70117
lowerneck -9.25587 0.806413 2.17598
upperneck 15.5615 0.304556 2.74482
head 6.25172 0.493744 0.537769
rclavicle -1.19271e-015 -1.59028e-014
rhumerus -54.2359 -28.9108 -59.7535
rradius 18.0186
rwrist 53.4044
rhand 6.95999 -28.914
rfingers 7.12502
rthumb 32.2376 -56.072
lclavicle -1.19271e-015 -1.59028e-014
lhumerus -49.8283 23.8765 67.9191
lradius 16.1142
lwrist -32.9762
lhand -18.0863 -8.96198
lfingers 7.12502
lthumb 8.18701 20.8594
rfemur -4.34204 23.9663 25.994
rtibia 2.44524
rfoot -10.9387 -22.0483
rtoes 1.95152
lfemur 7.89767 -48.3834 -13.7154
ltibia -4.8962
lfoot -32.8532 56.602
ltoes 19.2337
